<?xml version="1.0" encoding="utf-8"?>
<!-- Generator: Adobe Illustrator 18.1.1, SVG Export Plug-In . SVG Version: 6.00 Build 0)  -->
<!DOCTYPE svg PUBLIC "-//W3C//DTD SVG 1.1//EN" "http://www.w3.org/Graphics/SVG/1.1/DTD/svg11.dtd">
<svg version="1.1" id="Layer_1" xmlns="http://www.w3.org/2000/svg" xmlns:xlink="http://www.w3.org/1999/xlink" x="0px" y="0px"
	 viewBox="0 0 338.9 292.7" enable-background="new 0 0 338.9 292.7" xml:space="preserve">
<g>
	<g>
		<path fill="#3C2415" d="M94.1,272.6h-0.2c-0.9,0-1.8,0.4-2.4,1.1c-0.1,0.1-0.3,0.2-0.9,0.6L89,275c-0.1,0-0.6,0.2-2.7,0.5l-1.1,0
			c-0.2,0-0.3-0.1-0.5-0.1c-1.1-0.2-1.5-0.4-1.6-0.4c-0.1,0-0.2-0.1-0.2-0.1c-0.9-0.5-1.6-1.1-2-2.1c-0.1-0.1-0.1-0.2-0.2-0.4
			c0-0.2-0.2-0.5-0.3-1.3l0-1.2c0.1-0.7,0.2-1.1,0.2-1.3c0.3-0.4,0.4-0.9,0.5-1.4c0,0,0,0,0,0c0.1-0.2,0.3-0.4,0.4-0.6
			c0,0,0.3-0.7,2.1-2.1c0.7-0.4,1.3-0.7,1.8-0.8c0.2-0.1,0.4-0.1,0.6-0.2c0,0,0.6-0.2,2.3-0.2h0.3c1,0,1.8,0,2.4,0.1
			c0.1,0,0.3,0,0.5,0c1.1,0,2.1-0.5,2.7-1.4c0.8-1.1,1.2-2.6,1.3-7.4v-0.2c0-0.1-0.1-1.1-0.1-1.1c0-0.2,0-0.4,0-0.6l0-0.2
			c0-0.2,0-0.4-0.1-0.6l-0.4-2.3c-0.2-1.4-1.3-3.3-4.5-3.3c0,0-3.3,0.1-3.3,0.1c-0.2,0-0.4,0-0.5,0.1c-1.6,0.3-2.7,0.6-3.4,0.8
			c-0.7,0.1-1.2,0.3-1.7,0.5c-1.1,0.4-2.2,0.9-3.5,1.7c-0.4,0.2-0.8,0.4-1.1,0.6c-0.4,0.2-0.9,0.5-1.4,0.9c-0.9,0.6-2.2,1.7-4.4,3.8
			c0,0-0.1,0.1-0.1,0.1c-1.6,1.8-2.9,3.7-4,5.6c0,0.1-0.1,0.2-0.1,0.2c0,0.1-0.1,0.1-0.1,0.2c-0.4,0.4-0.6,1-0.7,1.6
			c0,0.1-0.1,0.4-0.4,1c-0.1,0.2-0.2,0.5-0.3,0.7c0,0.2-0.1,0.3-0.1,0.5c-0.2,0.3-0.3,0.7-0.3,1c0,0.2-0.1,0.4-0.1,0.5
			c-0.2,0.3-0.3,0.7-0.3,1c-0.1,0.8-0.2,1.5-0.3,2.1c-0.1-0.6-0.2-1-0.4-1.4c-0.1-0.5-0.2-1-0.4-1.3c-0.1-0.6-0.3-1.2-0.5-1.6
			c-0.3-1.3-0.6-2.2-0.8-2.7c-0.1-0.5-0.2-1.2-0.4-1.8c-0.1-0.4-0.2-0.9-0.4-1.3c-0.1-0.5-0.2-1.1-0.4-1.8c-0.1-0.6-0.2-1.3-0.4-1.9
			c-0.1-0.5-0.2-1-0.3-1.6c-0.1-0.8-0.2-1.6-0.5-2.2c-0.3-4.5-3-5-4.3-5c-0.2,0-0.3,0-0.5,0c-0.6,0.1-1.1,0.2-1.6,0.4
			c-0.5,0.1-0.9,0.2-1.3,0.3c-0.8,0.1-1.3,0.2-1.8,0.4c-0.7,0.1-1.4,0.2-2.1,0.4l-3.2,0.5l-0.2,0c-0.7,0-1.4,0.2-2,0.7l-0.3,0.2
			c-0.7,0.5-1.2,1.4-1.3,2.2l-0.1,0.4c-0.2,0.3-0.2,0.7-0.3,1.1c0,0,0,0.1,0,0.1c-0.1,0.2-0.2,0.4-0.2,0.6l-0.5,2.1l-0.4,1.3
			c-0.3,0.8-0.5,1.4-0.6,1.9l-0.8,2.5c-1.3,4.1-2.8,8.6-4.5,13.5l-0.3,0.9c-0.5-1.6-1.5-3.2-3.7-3.2l-0.2,0c-0.9,0-1.8,0.4-2.4,1.1
			c-0.1,0.1-0.3,0.2-0.9,0.6l-1.5,0.7c-0.1,0-0.6,0.2-2.7,0.5l-1.1,0c-0.2-0.1-0.3-0.1-0.5-0.1c-1.1-0.2-1.5-0.4-1.6-0.5
			c-0.1,0-0.2-0.1-0.3-0.1c-0.9-0.5-1.6-1.1-2-2.1c-0.1-0.1-0.1-0.2-0.2-0.4c0-0.2-0.2-0.5-0.3-1.3l0-1.2c0.1-0.7,0.2-1.1,0.2-1.3
			c0.3-0.4,0.5-0.9,0.5-1.4c0,0,0,0,0,0c0.2-0.2,0.3-0.4,0.4-0.7c0,0,0.3-0.7,2.1-2.1c0.7-0.4,1.3-0.7,1.8-0.8
			c0.2-0.1,0.4-0.1,0.6-0.2c0,0,0.6-0.2,2.3-0.2h0.3c1,0,1.8,0,2.4,0.1c0.2,0,0.3,0,0.4,0c1.1,0,2.1-0.5,2.7-1.4
			c0.8-1.1,1.2-2.6,1.3-7.4l0-0.2c0-0.1-0.1-1.1-0.1-1.1c0-0.2,0-0.4,0-0.6l0-0.2c0-0.2,0-0.4-0.1-0.6l-0.4-2.3
			c-0.2-1.4-1.3-3.3-4.5-3.3c0,0-3.3,0.1-3.3,0.1c-0.2,0-0.4,0-0.5,0.1c-1.6,0.3-2.7,0.6-3.4,0.8c-0.7,0.1-1.2,0.3-1.7,0.5
			c-1.1,0.4-2.2,0.9-3.5,1.7c-0.4,0.2-0.8,0.4-1.1,0.6c-0.4,0.2-0.9,0.5-1.4,0.9c-0.9,0.6-2.2,1.7-4.4,3.8c0,0-0.1,0.1-0.1,0.1
			c-1.6,1.8-2.9,3.7-4,5.6c0,0.1-0.1,0.2-0.1,0.2c0,0.1-0.1,0.1-0.1,0.2c-0.4,0.4-0.6,1-0.7,1.6c0,0.1-0.1,0.4-0.4,1
			c-0.1,0.2-0.2,0.5-0.3,0.7c0,0.2-0.1,0.3-0.1,0.5c-0.2,0.3-0.3,0.7-0.3,1c0,0.2-0.1,0.4-0.1,0.5c-0.2,0.3-0.3,0.7-0.3,1
			c-0.4,2.7-0.6,4.5-0.6,5.7c0,0.1,0,0.3,0,0.4l0.4,3.1c0,0.1,0,0.3,0.1,0.4c0.6,2.2,1.1,3.6,1.7,4.6c0.4,1.2,1.4,2.5,3.2,4.7
			c0.1,0.2,0.3,0.3,0.5,0.5c0.4,0.3,0.6,0.5,0.7,0.6c0.2,0.3,0.5,0.6,0.8,0.8l1.6,1.1c0.1,0.1,0.2,0.1,0.3,0.2
			c1.5,0.8,2.8,1.4,3.9,1.6c0.8,0.3,1.5,0.5,2.2,0.5c1.3,0.3,2.8,0.4,4.4,0.4c0,0,1.6,0,1.6,0c0.1,0,0.2,0,0.3,0
			c0.4,0,1-0.1,1.7-0.3c1.3-0.1,2.2-0.2,3-0.5c0.5-0.1,1.2-0.2,1.9-0.5c0.5-0.1,1-0.2,1.6-0.5c0.3-0.1,0.6-0.2,0.9-0.4
			c0,0,0.1,0.1,0.1,0.1l0.2,0.2c0.6,0.6,1.5,1,2.4,1c0,0,9.4-0.1,9.4-0.1c0.9,0,1.8-0.4,2.4-1l0.1-0.1c0.5-0.5,0.8-1.1,0.9-1.8
			c0,0,0,0,0-0.1c0.2-0.4,0.3-0.8,0.3-1.2c0.1-0.5,0.2-1.4,0.6-2.9c0.1,0,0.2,0,0.3,0l2.3-0.4c0.9-0.1,1.7-0.2,2.6-0.3
			c0.1,0.2,0.2,0.4,0.2,0.6l0,0.2c0,0.1,0.1,0.2,0.1,0.4l0.8,2.2c0.5,1.3,0.9,2.1,1.1,2.7c0.7,2.8,2.7,3.1,3.5,3.1c0,0,0.4,0,0.4,0
			c0.3,0,0.6-0.1,0.9-0.1l0.6-0.2c0.5-0.2,1-0.4,1.4-0.8c0.2-0.1,0.5-0.3,1-0.6l1.7-1c0.6-0.3,1.2-0.6,1.7-1
			c0.3-0.1,0.6-0.3,0.9-0.5c0.7-0.3,1.3-0.8,2-1.4c0.3-0.3,0.5-0.6,0.6-0.9c0,0,0.1,0.1,0.1,0.1c0.1,0.2,0.3,0.3,0.5,0.5
			c0.4,0.3,0.6,0.5,0.7,0.6c0.2,0.3,0.5,0.6,0.8,0.8l1.6,1.1c0.1,0.1,0.2,0.1,0.3,0.2c1.5,0.8,2.8,1.4,4,1.6
			c0.7,0.3,1.5,0.5,2.2,0.5c1.3,0.3,2.8,0.4,4.4,0.4c0,0,1.6,0,1.7,0c0.1,0,0.2,0,0.4,0c0.4,0,1-0.1,1.7-0.3
			c1.3-0.1,2.2-0.2,2.9-0.5c0.6-0.1,1.3-0.2,2-0.5c0.4-0.1,1-0.2,1.5-0.5c0.4-0.1,0.8-0.3,1.2-0.6c0.9-0.3,1.7-0.8,2.5-1.4
			c0.9-0.7,1.5-1.8,1.4-3c-0.1-2.2-0.4-4.6-0.9-7C97.9,276.1,97.4,272.6,94.1,272.6z"/>
		<path fill="#3C2415" d="M198.1,266.1c-0.2-0.1-0.3-0.2-0.5-0.4l-2.6-1.5c-0.3-0.2-0.6-0.3-0.9-0.4c-0.2-0.2-0.5-0.3-0.7-0.4
			c1.1,0,2.1-0.4,2.8-1.2c0.5-0.5,0.9-1.2,1.1-1.9l0.1-0.2c0-0.1,0.1-0.2,0.1-0.3c0.4-1.2,0.7-1.7,0.8-1.9c0.3-0.4,0.5-0.9,0.6-1.5
			l0.9-2c0.1-0.2,0.1-0.4,0.2-0.6c0,0,0.1-0.4,0.6-1.4c0.3-0.5,0.4-1,0.4-1.6v-0.2c0-0.9-0.4-1.8-1-2.4l-0.1-0.1
			c-0.5-0.5-1.1-0.8-1.7-0.9c-0.4-0.2-0.9-0.4-1.4-0.4c0,0-0.1,0-0.1,0c-0.3-0.1-0.6-0.2-0.9-0.3c-0.2,0-0.4-0.1-0.6-0.1
			c-0.3-0.2-0.7-0.3-1-0.3l-3.9-0.5c-0.2,0-0.3,0-0.5,0c0,0-6.7,0-6.7,0c-0.1,0-0.2,0-0.4,0c-2.7,0.3-4.2,0.5-5.1,0.8
			c-0.6,0.1-1.4,0.2-2.1,0.5c-0.7,0.2-1.6,0.4-2.5,0.8c-1.6,0.5-2.7,1.1-3.5,1.6c-0.5,0.3-1,0.6-1.5,0.9c0-0.3,0-0.5,0-0.8
			c0-1.1-0.6-2.2-1.5-2.8l-0.2-0.2c-0.6-0.4-1.3-0.6-2-0.6c0,0-0.1,0-0.2,0c-0.4,0-1.2,0.1-2,0.4c-0.5,0.1-1.1,0.2-1.7,0.4
			c-1,0.1-1.8,0.3-2.4,0.6l-3.3,0.8c-1.4,0.2-3.2,1.1-3.6,4.9c-0.2,1.1-0.4,1.9-0.4,2.5c-0.3,1.3-0.4,2.1-0.4,2.8l-0.4,3
			c-0.3,2.3-0.5,5.6-0.8,10c0,0.1,0,0.1,0,0.2l0,2.6c-0.5,0.2-0.9,0.5-1.3,0.7c-0.4,0.1-0.8,0.2-1.2,0.4l-2.1,0.4
			c-0.1,0-0.2-0.1-0.4-0.1c-0.1-0.1-0.2-0.2-0.3-0.2c-0.3-0.7-0.4-1.4-0.4-2.1l0.5-4.4c0.1-0.7,0.2-1,0.2-1.1
			c0.1-0.3,0.2-0.6,0.2-0.9c0-0.4,0.3-1.7,1.1-4.8c0-0.1,0.1-0.2,0.1-0.3c0-0.1,0-0.2,0-0.3c0.3-0.4,0.4-0.9,0.5-1.5
			c0-0.1,0-0.2,0-0.3c0-0.1,0.1-0.2,0.1-0.3c0.9-3.3,1.4-4.5,1.6-5c0.1-0.2,0.1-0.3,0.2-0.5c0.2-0.6,0.3-0.9,0.3-1
			c0.1-0.2,0.2-0.3,0.3-0.5l0.5-1.2c0.2-0.4,0.3-0.9,0.3-1.3v-0.2c0-0.9-0.4-1.8-1-2.4l-0.2-0.2c-0.6-0.6-1.5-1-2.4-1
			c0,0-0.4,0-0.4,0c-0.2,0-0.3,0-0.5,0l-2.8,0.4c-0.2,0-0.4,0.1-0.5,0.1c-0.6,0.2-0.9,0.3-0.9,0.3c-0.2,0-0.5,0-0.7,0.1l-1.8,0.4
			c-0.1,0-0.2,0.1-0.3,0.1c-0.5,0.2-0.7,0.2-0.8,0.2c-0.4,0-0.7,0.1-1.1,0.2c-0.3,0.1-0.4,0.2-0.5,0.2c-0.7,0.1-1.3,0.3-1.8,0.7
			c-0.6,0.5-1,1.1-1.3,1.7l0-1.3c0-0.7-0.1-1.3-0.5-1.9c-0.8-1.3-2.1-2-3.6-2c-0.2,0-0.4,0-0.6,0l-0.2,0l-1.6,0c-0.8,0-1.4,0-2,0.1
			c-0.1,0-0.2,0-0.3,0c-0.1,0-0.2,0-0.2,0c-0.5,0-0.9,0.1-1.2,0.2c-3.5,0.2-5.9,0.3-7.3,0.5c-5.9,0.2-7.7,0.4-8.5,0.5
			c-2.7,0.1-4.1,0.2-4.9,0.2c-0.1,0-0.3,0-0.4,0c-0.2,0-0.4,0-0.6,0l-0.3,0c-2.8,0.2-4.1,2.1-4.1,4l0,2.9c0,0.4,0,1.5-0.4,4.3
			c0,0.1,0,0.3,0,0.4l0,1.2c0,0.3,0,0.5,0.1,0.8c0.2,0.8,0.8,1.9,2.4,2.6c0.4,0.2,0.9,0.3,1.4,0.3c0.4,0,0.8-0.1,1.1-0.2
			c1.2,0,2.3-0.1,3.3-0.3v0l2-0.2l0,1.1c-0.3,11.8-0.5,14.1-0.5,14.5c0,0.1,0,0.3,0,0.4c-0.1,3.3-0.2,6.1-0.5,8.2
			c-0.1,1.3,0.4,2.5,1.5,3.2l0.2,0.2c0.6,0.4,1.2,0.5,1.9,0.5c0,0,0.3,0,0.3,0c0.7,0,1.5-0.1,2.4-0.4c1.1,0,2.2-0.1,3.2-0.4
			c1.1-0.1,2-0.3,2.6-0.5c1.9-0.1,3.4-0.6,4.5-1.5c0.9-0.7,1.4-1.9,1.3-3.1l-0.1-0.7c0-0.3,0-0.6,0-0.9c-0.2-1.3-0.3-2.4-0.3-3.5
			c0-0.1,0-0.1,0-0.2c-0.4-5.2-0.6-11.3-0.6-18.1c0,0,0-0.6,0-0.6c0.1,0,0.2-0.1,0.3-0.1c1.4-0.1,2.4-0.2,3.2-0.4
			c1.7-0.1,3.1-0.3,4.3-0.8c0,0.1-0.1,0.3-0.1,0.4c0,0.3-0.1,0.5-0.1,0.7c-0.3,0.5-0.4,1.1-0.4,1.6c0,0.1,0,0.1,0,0.2
			c-0.3,0.5-0.4,1-0.4,1.6c0,0,0,0.5-0.4,1.9c0,0.1,0,0.2-0.1,0.3l-0.8,5.4c0,0.2,0,0.3,0,0.5l0,1.5l-0.1,1.6c0,0.1,0,0.2,0,0.2
			c0,1.2,0.1,2.6,0.4,3.7c0.1,1.1,0.6,2.3,1.3,4c0.6,1.4,1.6,2.8,3.1,4.3c0.1,0.1,0.2,0.2,0.4,0.3c1.1,0.8,2.3,1.6,3.6,2.2
			c0.2,0.1,0.3,0.1,0.5,0.2c1,0.3,2.3,0.6,3.8,0.8c0.2,0,0.3,0,0.5,0c0,0,1.7,0,1.7,0c0.1,0,0.3,0,0.4,0l2.5-0.3c0.1,0,0.2,0,0.3,0
			c1.7-0.4,3.2-0.8,4.4-1.3c0.2,0.3,0.4,0.5,0.6,0.8l0.2,0.2c0.6,0.6,1.5,1,2.4,1c0,0,0.2,0,0.2,0c0.5,0,1-0.1,1.5-0.4
			c0.3-0.1,0.6-0.2,0.9-0.4c0.4-0.1,0.8-0.2,1.1-0.4c0.5-0.1,0.9-0.3,1.3-0.5c0.5-0.1,0.9-0.3,1.3-0.4c0.4-0.1,0.8-0.2,1.2-0.4
			c0.3-0.1,0.7-0.2,1-0.4c0.9-0.2,1.5-0.5,2.1-0.9c0.3,0.2,0.7,0.4,1.1,0.5c0.3,0.2,0.7,0.3,1.1,0.4c0.6,0.2,1,0.4,1.5,0.5l1,0.3
			c0.9,0.3,1.6,0.4,2.3,0.5c1.5,0.4,3.8,0.6,6.7,0.7c0.1,0,0.1,0,0.2,0c0,0,1.3,0,1.3,0c0.1,0,0.2,0,0.3,0c2.5-0.2,4.1-0.4,5.1-0.7
			c1.2-0.1,2.1-0.3,2.8-0.6c1.6-0.3,2.8-0.7,3.8-1.2c0.4-0.1,0.8-0.3,1.2-0.5c0.5-0.2,0.9-0.4,1.3-0.7c1.2-0.6,2.6-1.6,4.2-3.1
			c0.2-0.2,0.4-0.4,0.6-0.7c0.1-0.1,0.1-0.2,0.2-0.3c0.3-0.3,0.6-0.6,0.8-1c0.2-0.4,0.4-0.6,0.4-0.8c0.4-0.5,0.8-1,0.9-1.7
			c0,0,0-0.1,0-0.1c0.5-1.3,0.9-2.9,1-5c0-0.1,0-0.1,0-0.2C202.1,271.2,200.7,268.3,198.1,266.1z M186.7,261.9l0.7,0.1
			c0.2,0,0.5,0.1,0.7,0.1c0,0-0.1,0-0.1,0c-0.5,0-0.8,0-0.9-0.1C186.9,261.9,186.8,261.9,186.7,261.9z M189.3,262.4
			c-0.1-0.1-0.3-0.1-0.4-0.2c0.4,0.1,0.7,0.1,0.9,0.2C189.8,262.5,189.4,262.4,189.3,262.4z M166.5,271.1c0.1,0.1,0.3,0.2,0.4,0.3
			c0.5,0.4,1,0.7,1.4,0.9c-0.2,0-0.4-0.1-0.6-0.1c0,0-0.3,0-0.3,0c-0.8,0-1.6,0.3-2.2,0.8c0.1-1.3,0.1-2.3,0.2-3.2
			C165.7,270.4,166.1,270.7,166.5,271.1z"/>
		<path fill="#3C2415" d="M336.6,269.6c-0.3-0.5-0.6-1.1-1-1.5c-1.2-1.9-2.6-4.2-4.1-6.9c-0.5-1-0.9-1.8-1.2-2.4
			c0-0.1,0-0.1-0.1-0.2l1.9-2.1c0-0.1,0.1-0.1,0.1-0.2l1.8-2.3c0.1-0.1,0.1-0.2,0.2-0.3c0.1-0.2,0.2-0.3,0.2-0.4
			c0.3-0.2,0.5-0.5,0.7-0.8c0.3-0.5,0.5-0.8,0.6-1c0.2-0.2,0.4-0.5,0.6-0.7l2.1-3.5c0.3-0.6,0.5-1.3,0.5-1.9c0-0.8-0.3-1.5-0.8-2.1
			l-0.4-0.5c-0.1-0.1-0.3-0.3-0.4-0.4c-2-1.6-3-2.5-3.8-2.9l-2.2-1.5c-0.6-0.4-1.2-0.6-1.9-0.6c0,0-0.3,0-0.3,0
			c-0.7,0-1.3,0.2-1.9,0.6l-0.2,0.2c-0.3,0.2-0.6,0.5-0.9,0.9l-1.3,1.9c-1.5,2-3,3.9-4.4,5.5c-0.1,0.2-0.3,0.3-0.4,0.5
			c0-0.5-0.1-0.9-0.1-1.4l0-0.8c0-0.2,0-0.4,0-0.5l-0.4-2.3l0-0.7c0-0.9-0.4-1.8-1-2.4l-0.3-0.3c-0.6-0.6-1.5-1-2.4-1
			c0,0-0.4,0-0.4,0c-0.5,0-1.2,0.1-2,0.5c-0.4,0.1-0.8,0.2-1.1,0.4c-0.4,0.1-0.9,0.2-1.3,0.3c-0.7,0.1-1.4,0.2-2,0.5
			c-1.6,0.2-4.6,1-4.6,4l0,0.6c0,0,0.1,2.3,0.1,2.3c0,0.3,0.1,0.6,0.2,0.9c0.1,0.8,0.3,3.7,0.4,13.8l0,3.9c-0.6-0.5-1.3-0.9-2.4-0.9
			h-0.2c-0.9,0-1.8,0.4-2.4,1.1c-0.1,0.1-0.3,0.2-0.9,0.6l-1.5,0.7c-0.1,0-0.6,0.2-2.7,0.5l-1.1,0c-0.2,0-0.3-0.1-0.5-0.1
			c-1.1-0.2-1.5-0.4-1.6-0.5c-0.1,0-0.2-0.1-0.2-0.1c-0.9-0.5-1.6-1.1-2-2.1c-0.1-0.1-0.1-0.2-0.2-0.4c0-0.2-0.2-0.5-0.3-1.3l0-1.2
			c0.1-0.7,0.2-1.1,0.2-1.3c0.3-0.4,0.5-0.9,0.5-1.4c0,0,0,0,0,0c0.1-0.2,0.3-0.4,0.4-0.7c0,0,0.3-0.7,2.1-2.1
			c0.7-0.4,1.3-0.7,1.8-0.8c0.2-0.1,0.4-0.1,0.6-0.2c0,0,0.6-0.2,2.3-0.2h0.3c1.2,0,2,0.1,2.4,0.1c0.1,0,0.3,0,0.4,0
			c1.1,0,2.1-0.5,2.7-1.4c0.8-1.1,1.2-2.6,1.3-7.3c0,0,0-0.3,0-0.4l-0.1-0.9c0-0.2,0-0.4,0-0.6l0-0.2c0-0.2,0-0.4-0.1-0.6l-0.4-2.3
			c-0.2-1.4-1.3-3.3-4.5-3.3c0,0-3.3,0.1-3.3,0.1c-0.2,0-0.4,0-0.5,0.1c-1.6,0.3-2.7,0.6-3.4,0.8c-0.7,0.1-1.2,0.3-1.7,0.5
			c-1.1,0.4-2.2,0.9-3.5,1.7c-0.4,0.2-0.8,0.4-1.1,0.7c-0.4,0.2-0.9,0.5-1.4,0.9c-0.9,0.6-2.2,1.6-4.4,3.8c0,0-0.1,0.1-0.1,0.1
			c-1.6,1.8-2.9,3.7-4,5.6c0,0.1-0.1,0.2-0.1,0.2c0,0.1-0.1,0.1-0.1,0.2c-0.4,0.4-0.6,1-0.7,1.6c0,0.1-0.1,0.4-0.4,1
			c-0.1,0.2-0.2,0.5-0.3,0.7c0,0.2-0.1,0.3-0.1,0.5c-0.2,0.3-0.3,0.7-0.3,1c0,0.2-0.1,0.4-0.1,0.5c-0.2,0.3-0.3,0.7-0.3,1
			c-0.1,0.8-0.2,1.5-0.3,2.1c-0.1-0.6-0.2-1-0.4-1.4c-0.1-0.5-0.2-1-0.4-1.3c-0.1-0.6-0.3-1.2-0.5-1.6c-0.3-1.3-0.6-2.2-0.8-2.7
			c-0.1-0.5-0.2-1.2-0.4-1.8c-0.1-0.4-0.2-0.9-0.4-1.3c-0.1-0.5-0.2-1.1-0.4-1.8c-0.1-0.6-0.2-1.3-0.4-1.8c-0.1-0.5-0.2-1.1-0.4-1.6
			c-0.1-0.8-0.2-1.6-0.5-2.2c-0.3-4.5-3-5-4.2-5c0,0-0.1,0-0.1,0c-0.1,0-0.3,0-0.4,0c-0.6,0.1-1.1,0.2-1.6,0.4
			c-0.5,0.1-0.9,0.2-1.2,0.3c-0.8,0.1-1.3,0.2-1.8,0.4c-0.7,0.1-1.4,0.2-2.1,0.4l-3.2,0.5h-0.2c-0.7,0-1.4,0.2-2,0.7l-0.3,0.2
			c-0.7,0.5-1.2,1.4-1.3,2.2l-0.1,0.4c-0.2,0.3-0.2,0.7-0.3,1.1c0,0,0,0.1,0,0.1c-0.1,0.2-0.2,0.4-0.2,0.6l-0.5,2.1l-0.4,1.3
			c-0.3,0.8-0.5,1.4-0.6,2l-0.8,2.4c-1.3,4-2.7,8.4-4.4,13.1c-0.1-1.9-0.4-5.8-0.7-13.8l0-1.9l-0.1-8.4c0-1.3-0.8-2.5-2-3.1
			c-1-0.4-2.4-0.7-4.6-0.8c-0.1,0-0.1,0-0.2,0c0,0-4.9-0.1-5-0.1c-0.4,0-0.8,0.1-1.2,0.2c-1.5,0.6-2.5,2.1-2.5,3.8l0,1.2l-0.2,9.2
			c-0.3,0-0.6,0-0.9,0.1c-0.9,0-1.9,0.1-3.2,0.2l0.1-10.8c0-0.8-0.2-1.5-0.7-2.1l-0.2-0.3c-0.6-0.8-1.6-1.3-2.7-1.3c0,0,0,0-0.1,0
			c-2.7,0-4.9,0.1-6.4,0.5c-1.1,0-2,0.2-2.7,0.4c-2.3,0.7-3.2,2.5-3.2,4c0,0.3,0,0.5,0.1,0.8l0.3,10.8c-3.1,0.7-3.6,2.7-3.6,3.9
			c0,0.2,0,0.4,0,0.5c0.3,1.6,0.4,3.3,0.4,5.3l0,0.7c0,1.7,1,3.2,2.6,3.7c0.2,0.1,0.4,0.1,0.6,0.1c0,0.5-0.1,0.9-0.2,1.3
			c-0.1,0.4-0.1,0.8,0,1.1c-0.1,1.8-0.3,3.6-0.5,5.4c0,0.1,0,0.3,0,0.4l0,1.4c0,0.9,0.4,1.8,1,2.4l0.2,0.2c0.6,0.6,1.5,1,2.4,1
			c0,0,1.4,0,1.4,0c2.6,0,4.6,0.1,6.1,0.3c0.2,0,0.4,0,0.6,0c0.2,0,0.3,0,0.5,0l0.2,0c0.1,0,0.2,0,0.3,0c0.5,0,1.1-0.1,1.5-0.4
			l0.3-0.2c1.2-0.6,1.9-1.8,1.9-3.1l-0.1-5.7l0-5.7c1-0.1,2.1-0.2,3.2-0.2l1,0l0,1.5c0,0.1,0.5,9.7,0.5,9.7c0,0.2,0,0.4,0,0.6
			c0,3.1,2.1,4.5,4.1,4.5c0,0,0,0,0,0c0.6,0,1.3-0.2,1.8-0.4l2.4-0.5c2.2-0.4,2.8-0.5,2.8-0.5c0.1,0,0.2,0,0.3,0
			c0.6-0.1,1.1-0.2,1.6-0.3c0.6,0.4,1.3,0.7,2,0.7c0,0,9.4-0.1,9.4-0.1c0.9,0,1.8-0.4,2.4-1l0.1-0.1c0.5-0.5,0.8-1.1,0.9-1.8
			c0,0,0,0,0,0c0.2-0.4,0.3-0.8,0.3-1.2c0.1-0.5,0.2-1.4,0.6-2.9c0.1,0,0.2,0,0.3,0l2.3-0.4c0.9-0.1,1.7-0.2,2.6-0.3
			c0.1,0.2,0.2,0.4,0.2,0.6l0,0.2c0,0.1,0.1,0.3,0.1,0.4l0.8,2.2c0.5,1.3,0.9,2.1,1.1,2.7c0.7,2.8,2.7,3.1,3.5,3.1c0,0,0.4,0,0.4,0
			c0.3,0,0.6-0.1,0.9-0.1l0.6-0.2c0.5-0.2,1-0.4,1.4-0.8c0.2-0.1,0.5-0.3,1.1-0.6l1.7-1c0.6-0.3,1.2-0.6,1.7-1
			c0.3-0.1,0.6-0.3,0.9-0.5c0.7-0.3,1.3-0.8,2-1.4c0.3-0.3,0.5-0.6,0.6-0.9c0,0,0.1,0.1,0.1,0.1c0.1,0.2,0.3,0.3,0.5,0.5
			c0.4,0.3,0.6,0.5,0.7,0.6c0.2,0.3,0.5,0.6,0.8,0.8l1.6,1.1c0.1,0.1,0.2,0.1,0.3,0.2c1.5,0.8,2.8,1.4,4,1.6
			c0.8,0.3,1.5,0.5,2.2,0.5c1.3,0.3,2.8,0.4,4.4,0.4c0,0,1.6,0,1.6,0c0.1,0,0.2,0,0.4,0c0.4,0,1-0.1,1.7-0.3
			c1.3-0.1,2.2-0.2,2.9-0.5c0.6-0.1,1.3-0.2,2-0.5c0.4-0.1,1-0.2,1.5-0.5c0.4-0.1,0.8-0.3,1.2-0.6c0.6-0.2,1.1-0.5,1.6-0.8
			c0.9,1.1,2.3,1.4,2.9,1.6c0.2,0,0.4,0.1,0.5,0.1c1.1,0.1,2.1,0.2,3.1,0.5c0.1,0,0.1,0,0.2,0c1.9,0.3,2.5,0.5,2.6,0.5
			c0.5,0.2,1,0.3,1.5,0.3c0,0,0,0,0,0c0.6,0,1.3-0.2,1.8-0.5c1.5-1,1.6-2.2,2.1-5.7c0-0.1,0-0.3,0-0.4l0-0.9c0-0.5,0-1.1,0.1-1.8
			c0.9,1.6,1.8,3,2.6,4.2c1,1.8,2.1,3.2,3.3,4.2c0.6,0.5,1.5,0.8,2.3,0.8c0,0,0,0,0,0c0.9,0,1.7-0.4,2.4-1c1-1,2.5-2.3,4.6-3.9
			l2.2-1.7c0.8-0.6,1.3-1.7,1.3-2.7c0-0.8-0.3-1.5-0.7-2.1L336.6,269.6z"/>
	</g>
	<path fill="#3C2415" d="M254.3,212.4c1.9-10.7,1.5-20.5-1.4-29.3l7.9-7.2l-10.1,1.5c-2.8-5.9-6.8-11.2-11.9-15.9l6.3-15.3L233,157
		c-3.9-2.7-7.8-4.8-10.9-6.2c1.5-3.6,3.6-7.7,5.8-9.8c2.5-2.3,4.2-5,5.1-8.1c1.3-4.7,0.5-9.4-0.1-13.2c-0.4-2.2-0.7-4.2-0.5-5.6
		c0.5-3.5-2.5-7.2-9.4-11.5c0.3-2.7,0.5-5.3,0.7-7.9c1.8-0.9,3.5-1.8,5.1-2.7c9.5-5.4,15.9-15.9,16.2-26.9c0.3-9.4-4-17.7-11.8-22.7
		c-8.8-5.7-17.6-7.6-23.8-8.2c-6.2-11.4-22.3-28.8-37-32.7c-4-1.1-7.9-1.6-11.8-1.6c-7.5,0-13.8,1.9-19.9,3.7
		c-4,1.2-7.7,2.3-11.7,2.9c-2.3,0.4-4.6,1.7-6.7,3.9c-2.9,3-6.1,7.7-9.4,14l-1.4,2.7c-3.2,6.4-6,13.1-8,18c-0.6-0.4-0.9,4.5-4.9,6.8
		c-6.3,1.4-16.4,5.7-21.9,12.5c-3.4,4.1-4.8,8.6-4.1,13.3l0,0.2c0,0.2,0,0.4,0.1,0.6l0,0.2l0,0.1c3.8,12.4,11.7,18.4,24,18.4
		c4.8,0,9.8-0.9,14.5-2c0.4,4.1,0.8,8.2,1.2,12.2c-5.9-5.8-15.1-10.8-29-10.8c-7.6,0-16.2,1.6-25.4,4.6l-6.8,2.3l6.7,2.6
		c11.4,4.3,17.4,9.4,22.8,14c3.9,3.3,7.4,6.3,12.1,8.1c-11.9,3.5-26,14.3-31.9,44.1l-0.6,2.9c-2.5,0.1-8.4,2.1-8.4,2.1l15.9,5.7
		c-8.7,12.4-14.4,27-15.6,40L34,233.9l18.2-3c0.5,7.1,2.7,12.9,6.3,17c-0.1,2.5,0.5,4.5,1.6,5.7c0.7,0.8,1.7,1.3,2.7,1.3
		c1.1,0,2.3-0.5,3.1-1.8c1.3,0.5,2.7,0.9,4.1,1.2c0.5,0.1,1.1,0.2,1.6,0.3c0.2,0.3,0.4,0.5,0.6,0.8c0.8,0.8,1.9,1.3,3,1.3
		c1.6,0,2.9-0.8,3.7-2.1c1.5-0.2,2.9-0.4,4.4-0.7c10.5-2.1,14.1-21.5,15.2-31.5c4,3.5,7.9,5.3,11.8,5.3c1.5,0,3-0.2,4.5-0.7
		c0.2,3.2,0.5,4.4,0.7,5.1c0,0,0,0.1,0,0.1c-0.5,2.1,0,4.1,0.8,5.2c0.7,1.1,1.8,1.8,2.9,1.9c1.1,1.4,2.4,2.5,3.9,3.4
		c0.4,0.3,0.9,0.6,1.4,0.9c0.1,0.1,0.1,0.2,0.2,0.4c0.9,1.6,2.7,2.3,4.2,2.3c0.8,0,1.6-0.2,2.2-0.6c0.7,0.1,1.4,0.1,2.2,0.1
		c3.3,0,7-0.7,11.1-2.1c0.6,0.4,1.3,0.7,2.1,0.7c1.9,0,4.6-1.4,6.6-3.9c0.4,0.3,0.7,0.6,1.1,0.9c-0.4,1-0.4,2.1,0,3
		c0.6,1.4,2,2.3,3.6,2.3c0.7,0,1.6-0.2,2.7-0.8l2,1.3l1.1-3.2c0,0,0.1-0.4,0.4-1.1c4.7-4.9,9-11,12.7-18.2
		c6.2-5.4,12.1-13.1,17.6-22.8c0.5-0.3,0.8-0.4,1-0.4c0.6,0.2,1.2,0.3,1.8,0.3c4.4,0,5.6-5,7.1-10.9c0.7-2.7,1.4-5.5,2.3-7.8
		c2-0.8,3.6-2.8,4.9-5c5.2,4.3,11.1,10.9,8.2,16.8c-2.7,5.7-5,8.4-7,10.9c-2.6,3.2-4.6,5.7-5.7,12.1c-0.1,0.4-0.1,0.7-0.1,1.1l0,0.3
		c0,0.3,0,0.5,0,0.9c0,0.1,0,0.2,0,0.2c0,0.4,0.1,0.7,0.1,1.1l0,0.2c0,0.3,0.1,0.6,0.2,0.9l0.1,0.3c0.1,0.3,0.1,0.6,0.2,0.9l0.1,0.2
		c0.1,0.3,0.2,0.7,0.4,1l0.1,0.2c0.1,0.3,0.2,0.5,0.4,0.8l0.1,0.3c0.1,0.3,0.3,0.6,0.5,0.9l0.1,0.1c0.2,0.3,0.4,0.7,0.6,1l0.2,0.2
		c0.2,0.3,0.3,0.5,0.6,0.8l0.1,0.2c0.5,0.6,1,1.3,1.5,1.9l0.2,0.2c0.2,0.3,0.5,0.5,0.8,0.8l0.1,0.1c0.3,0.3,0.6,0.6,1,0.9
		c0.3,0.3,0.6,0.6,0.9,0.8l0.2,0.2c0.7,0.6,1.4,1.1,2.2,1.7c0.4,0.2,0.7,0.5,1.1,0.7l0.1,0.1c0.8,0.5,1.6,0.9,2.4,1.4
		c0.3,0.1,0.5,0.2,0.8,0.4c-0.2,1.4,0,2.6,0.7,3.6c0.7,1,1.7,1.5,2.9,1.5c1.6,0,3.2-1.1,4.3-3c0.5,0,1.1,0.1,1.6,0.1
		c0.7,0,1.5,0,2.2-0.1c0.9-0.1,1.7-0.3,2.6-0.5c0,0.1,0.1,0.1,0.1,0.1c0.6,0.9,1.5,1.3,2.6,1.3c2.9,0,5.7-3.9,7.2-7.9
		c2.7-3.2,4.9-7.3,6.6-12.4l8.7,7.9L254.3,212.4z M114.5,172.5c-0.1,6.1-0.2,11.8-0.2,17c-1.8-4.4-3.3-8.8-3.8-12.7
		C111.8,175.1,113.1,173.7,114.5,172.5z M110.1,138.5c1.5,1.4,3.2,2.4,5,2.9c0,1,0,2-0.1,3.1c-0.1,0-0.2,0.1-0.4,0.1
		c-3.7,0.9-7.4,2.2-11,3.7C106.3,145.6,108.5,142.3,110.1,138.5z M65.1,169.8c8.4-2.8,10.8-5.6,17.3-8c0,0,6.1-4.8,6.1-4.9
		c-5,3.6-9.7,7.8-13.9,12.6c-2.9,0.1-8.2,4.3-11.4,4.4L65.1,169.8z"/>
	<path fill="#00A14B" d="M211.4,149.1c0,0,51.5,11.9,39.3,65.8c-9.2,40.6-44,16.6-41.6,2.6c1.7-10.3,6-9,12.4-22.3
		c6.4-13.2-19.2-26.9-19.2-26.9L211.4,149.1z"/>
	<path opacity="0.24" fill="#8DC63F" d="M236.2,236.4c2.2-3.3,3.8-7.2,5-10.6c2.8-8.6,4.5-17.9,3.6-27c-1.9-19.7-18.2-37-36.9-42.3
		l-5.6,11.8c0,0,25.6,13.7,19.2,26.9c-6.4,13.3-10.7,12-12.4,22.3C207.5,227.1,223.2,241.3,236.2,236.4z"/>
	<polygon fill="#006838" points="230.5,162.3 243.3,149 232.6,164.9 	"/>
	<polygon fill="#006838" points="230.5,184.5 258.2,177.2 230.5,188.8 	"/>
	<polygon fill="#006838" points="247.1,204.6 258.2,224.7 247.1,210.2 	"/>
	<g>
		<defs>
			<path id="SVGID_1_" d="M211.4,149.1c0,0,51.5,11.9,39.3,65.8c-9.2,40.6-44,16.6-41.6,2.6c1.7-10.3,6-9,12.4-22.3
				c6.4-13.2-19.2-26.9-19.2-26.9L211.4,149.1z"/>
		</defs>
		<clipPath id="SVGID_2_">
			<use xlink:href="#SVGID_1_"  overflow="visible"/>
		</clipPath>
		<path clip-path="url(#SVGID_2_)" fill="#006838" d="M233.9,252.2l-3-1.6c13.2-24.3,16.4-46,9.5-64.5
			c-10.1-26.9-38.5-37.8-38.8-37.9l1.2-3.2c1.2,0.5,30.2,11.5,40.8,39.8C250.9,204.3,247.7,227,233.9,252.2z"/>
		<path clip-path="url(#SVGID_2_)" fill="#006838" d="M220.4,252.2l-3-1.6c13.2-24.3,16.4-46,9.5-64.5
			c-10.1-26.9-38.5-37.8-38.8-37.9l1.2-3.2c1.2,0.5,30.2,11.5,40.8,39.8C237.4,204.3,234.2,227,220.4,252.2z"/>
	</g>
	<path fill="#3C2415" d="M230.3,134.9c-0.7,0-1.3-0.2-1.9-0.6c-4.9-3.2-8.4-8.1-9.6-13.4c-0.6-0.5-1.1-1-1.4-1.4
		c-0.5-0.2-1-0.6-1.3-1c-0.7-0.9-0.9-2.2-0.5-3.3c1.8-5.1-4-11.8-6.4-13.9c-1.2-1.1-1.5-3-0.6-4.4c0.6-1,1.7-1.6,2.8-1.6
		c0.5,0,0.9,0.1,1.4,0.3c7.9,3.5,21.1,10.5,20,17.8c-0.2,1.2,0.2,3.2,0.5,5.3c0.6,3.9,1.4,8.8,0.1,13.6c-0.3,1-1.1,1.9-2.1,2.3
		C231.1,134.9,230.7,134.9,230.3,134.9z"/>
	<path fill="#BE1E2D" d="M229.7,113.1c0.8-5.9-18.1-14.3-18.1-14.3s10.3,9.2,7.3,17.6c1.3-0.1,1.5,2.6,3,1.8
		c0.5,5.4,3.8,10.3,8.4,13.3C232.2,124.7,229,117.4,229.7,113.1z"/>
	<path fill="#00A14B" d="M112.9,56.2c-2.6,10.3,4.2,61.8,5.6,80.4c1.3,18.6-2.3,86.7,0,94c3,9.4,12,23.1,52.6-5.9
		c40.6-29.1,61.5-152.2,44.4-176.2C198.4,24.6,116.3,38.3,112.9,56.2z"/>
	<path opacity="0.24" fill="#8DC63F" d="M157.8,215.7c8.5-6.8-0.9-19.7,6-28.2c8.5-10.3,11.1-23.9,0-32.5
		c15-38.8,25.7-93.7-14.2-117.9c-19.5,3.4-36,10.4-37.5,18.2c-2.6,10.3,4.2,61.8,5.6,80.4c1.3,18.6-2.3,86.7,0,94
		c1.8,5.7,5.9,13,17.9,11.3c0.9-4.8,2.8-9.1,6.1-13.5C145,222.6,152.7,220,157.8,215.7z"/>
	<g>
		<defs>
			<path id="SVGID_3_" d="M111.6,58.4l6,80.5c0,0-2.3,84.3,0,91.5c3,9.1,12,22.5,52.6-5.8c40.6-28.3,61.6-148,44.5-171.3
				C197.5,30,121,28.9,111.6,58.4z"/>
		</defs>
		<clipPath id="SVGID_4_">
			<use xlink:href="#SVGID_3_"  overflow="visible"/>
		</clipPath>
		<path clip-path="url(#SVGID_4_)" fill="#006838" d="M150.2,249.3l-1.7-2.9c42.3-24.4,47.2-125.4,37.2-185.9
			c-4-24.4-9-31.7-11.1-32.1l0.7-3.2c6.8,1.4,11.2,19.7,13.7,34.8c4.2,25.1,6.7,66,1.4,105.2C186.3,195.4,176,234.4,150.2,249.3z"/>
		<path clip-path="url(#SVGID_4_)" fill="#006838" d="M142.9,248.6l-2.5-2.2c16.4-17.8,26.5-53.8,28.3-101.5
			c1.6-43.8-4.1-83.2-10.1-101.3c-3.5-10.6-6.2-11.9-7-12.1l0.7-3.2c3.5,0.7,6.6,5.4,9.5,14.3C175.2,83.2,182.1,206.2,142.9,248.6z"
			/>
		<path clip-path="url(#SVGID_4_)" fill="#006838" d="M126.9,246.5l-2.8-2c14.6-19.3,20.9-56.1,17.7-103.7
			c-2.9-43.7-12.6-82.4-20.4-99.8c-4.5-10.2-7.4-11.2-8.2-11.3l0.4-3.3c3.5,0.4,7.1,4.8,10.9,13.3
			C142.2,78.8,161.6,200.6,126.9,246.5z"/>
		<path clip-path="url(#SVGID_4_)" fill="#006838" d="M116.9,240.6l-2.9-1.7c12.8-20.4,16-57.6,8.8-104.8
			c-6.6-43.3-19.6-81.1-28.9-97.8c-5.4-9.8-8.3-10.6-9.1-10.6l0.1-3.3c3.5,0.1,7.5,4.2,12,12.4C117.7,72.2,147.5,191.9,116.9,240.6z
			"/>
	</g>
	<path fill="#3C2415" d="M160.7,245.7c-0.7,0-1.3-0.2-1.9-0.6c-1.3-0.9-32.2-21.8-33.5-47.4c-0.5-10.7-4.2-22.7-7-32.3
		c-2.2-7.3-4-13.1-3.9-16.8c0-0.8,0.1-1.6,0.1-2.4c-5.1-1.4-8.6-6.2-10.1-11c-1.6-5.2-0.4-9.8,2.9-12c3.9-2.6,7.9-3.9,11.6-3.9
		c3.7,0,6.9,1.3,9.6,3.9c4.1,3.8,14.1,6,28.3,6c17.6,0,35.8-3.2,38.2-4.1c0.3-0.1,0.6-0.2,0.9-0.3c11.2-1.9,18.3-5.2,19.9-9.5
		c0.4-1.2,1.5-2.1,2.8-2.2c0.1,0,0.5-0.2,0.5,0c-1.8,10.3,2.8,22.6,11.3,18.5c1.3-0.6,3.7-0.5,3.3,0.9c-0.9,3.3-2.7,6.1-5.3,8.5
		c-3.7,3.3-7.1,12.8-10.1,21.1c-3.8,10.7-6.8,18.7-11.5,20.9c-0.9,2.2-1.5,4.8-2.2,7.4c-1.5,5.9-2.9,11.5-7.9,11.5c0,0,0,0,0,0
		c-0.6,0-1.2-0.1-1.8-0.3c-4.5,1.5-19.8,19.8-24.8,28.9c-4.4,7.9-6,12.8-6,12.9c-0.3,1-1.1,1.8-2.1,2.2
		C161.4,245.6,161.1,245.7,160.7,245.7z"/>
	<path fill="#A97C50" d="M86,62.7c-5.1,0.9-10.3,6.8-11.1,13.7c0,0.1,0,0.2-0.1,0.3c0,0.2,0,0.4,0.1,0.6c10,32.5,46.9,6.5,61.5,10.7
		c1.1-0.1,2.3,0,3.6,0.1C127.5,70.4,106,58.7,86,62.7z"/>
	<path fill="#8B5E3C" d="M118.3,139.1c0,1.1-0.1,2.5-0.2,4.2C120.6,143,119.6,140.9,118.3,139.1z"/>
	<path fill="#BE1E2D" d="M119.3,123c0,0-9.4-37.2-60.7-20.1c21.4,8.1,25,19.3,36.8,22.7C107.1,128.9,119.3,123,119.3,123z"/>
	<path fill="#BE1E2D" d="M110.7,129.1c0,0-37-10.2-47.5,42.8c17.6-14.6,29.1-12.2,37.9-20.7C109.8,142.6,110.7,129.1,110.7,129.1z"
		/>
	<path fill="#3C2415" d="M181.7,103.1c-16.4,0-32.3-5.3-42.5-14.2c-0.1-0.1-0.1-0.1-0.2-0.2C128,73.1,110.3,63,94,63
		c-2.6,0-5.2,0.6-7.8,0.8c-9.5,0.7-12.3,15.9-12.3,16c0,0,1.4,1.1,0.9,1.1c0,0-0.1-3.1-0.1-3.1c-0.5,0-1-0.4-1-1
		c-0.6-4.5,0.8-8.7,4.2-12.6c6.8-7.8,19.6-12,24.2-12c0.2,0,0.5,0,0.7,0c0.1,0,0.1,0,0.2,0c3.5,1,7.9,1.6,13.1,1.6c0,0,0,0,0,0
		c30.9,0,81.6-18.4,82.1-18.6c0.1,0,0.1,0,0.2-0.1c0.1,0,2.3-0.4,5.9-0.4c7,0,17.5,1.4,28.1,8.2c7.3,4.7,11.4,12.5,11.1,21.4
		c-0.3,10.4-6.4,20.5-15.5,25.7C212.7,98.7,197.1,103.1,181.7,103.1C181.7,103.1,181.7,103.1,181.7,103.1z"/>
	<path fill="#C49A6C" d="M231.7,43.9c-16.7-10.7-33.2-7.7-33.2-7.7s-68.9,25.2-95.9,17.1c-5-0.6-34.3,8.6-29.1,27.9
		c0-0.1,1.3-4.7,1.3-4.8c0.9-6.8,6-12.8,11.1-13.7c20-4,41.5,7.7,54,25.4c14.5,12.7,48.4,23.1,87.5,1
		C244.1,79.6,248.5,54.6,231.7,43.9z"/>
	<path fill="#A97C50" d="M169.8,26.8c-13.1-6.6-38.7-0.7-45.9-15.3c-10.5,10.8-21.2,41.8-21.2,41.8c9.4,2.1,51.8,17.5,81.2,28.2
		c7,2.5,12.4,0.1,16.1-3.1c-2-10.8-5.1-21.1-11.4-28.5C181.7,42.2,177.4,31.1,169.8,26.8z"/>
	<path fill="#C49A6C" d="M209.7,42.6C210,34.1,189.4,8,171.6,3.3c-17.8-4.7-28.8,3-42.5,5.1c-1.9,0.3-3.6,1.4-5.3,3.1
		c7.2,14.6,32.8,8.7,45.9,15.3c7.7,4.3,12,15.4,18.8,23.1c6.3,7.4,9.4,17.7,11.4,28.5C210,69.8,209.6,48.8,209.7,42.6z"/>
	<path fill="#A97C50" d="M208.6,59.7c-1,5.1-4.5,11.9-6.6,16.6c11.3-10,10.5-28.1,9.6-33.5c-0.3-2-1.3-4-3-6.8
		C211.6,41.5,210.1,52.7,208.6,59.7z"/>
	<path fill="#00A14B" d="M115.3,151.2C52.8,166.9,33,261.9,82.5,250.6c11.8-2.4,13.6-34.3,13.6-34.3s2-32.7,19.3-43.6
		C123,166.2,148.9,142.9,115.3,151.2z"/>
	<path fill="#00A14B" d="M107.9,175c-3.4,14.7,18.2,40.8,10.3,46.3c-9.8,6.8-17.4,1.1-26-10.2C83.6,199.8,109.6,167.5,107.9,175z"/>
	<path opacity="0.24" fill="#8DC63F" d="M100.4,207.6c-5.3-10.1-4-20-1.6-30.4c-4.8,7.6-13.4,29.9-5.4,37c9,7.9,16.5,12.1,23.5,8
		C111.2,217.4,104,214.4,100.4,207.6z"/>
	<g>
		<defs>
			<path id="SVGID_5_" d="M115.1,151.2c-62.5,15.6-82.3,110.6-32.9,99.3c11.8-2.4,13.6-34.3,13.6-34.3s2-32.7,19.3-43.6
				C122.8,166.1,148.6,142.8,115.1,151.2z"/>
		</defs>
		<clipPath id="SVGID_6_">
			<use xlink:href="#SVGID_5_"  overflow="visible"/>
		</clipPath>
		<path clip-path="url(#SVGID_6_)" fill="#006838" d="M60.2,256.1c0-0.3,0.4-28.1,12-55.6c10.8-25.6,33.7-56.2,81.6-56.5l0,3.4
			c-36.9,0.3-63.3,18.6-78.4,54.3c-11.4,26.9-11.8,54.1-11.8,54.4L60.2,256.1z"/>
		<path clip-path="url(#SVGID_6_)" fill="#006838" d="M73.1,255.5c0-0.3,0.4-28.1,12-55.6c10.8-25.6,33.7-56.2,81.6-56.5l0,3.4
			c-36.9,0.3-63.3,18.6-78.4,54.4c-11.3,26.9-11.7,54-11.7,54.3L73.1,255.5z"/>
	</g>
	<path fill="#BE1E2D" d="M221.9,118.3c-1.6,0.8-1.7-2-3-1.8c-1.7,4.8-7.8,9.3-22.5,11.7c-3.3,1.7-56.7,10.3-70.2-2.5
		c-5.2-4.9-11.9-2.9-17,0.4c-5.1,3.4,0,17.6,8.7,17.2c0.1,0,0.1,0,0.2,0c0.1-1.7,2.6-0.2,0,0c-0.1,1.6-0.3,3.4-0.3,5.4
		c-0.2,7.5,9.9,29.7,10.9,48.8c1.2,24.2,32,44.8,32,44.8s1.6-5.1,6.3-13.5c4.6-8.4,23.7-32.7,28.6-30.6c4.9,2.1,4.9-10.5,8.6-18
		c7.5-0.5,12.7-33.6,21.8-41.7c2.4-2.1,3.7-4.5,4.4-6.9C225.8,128.6,222.4,123.7,221.9,118.3z"/>
	<path fill="#3C2415" d="M136.7,140c-3.8,3.8,27.2,38,84.5,2.5c12.4-3.6,9.7-14.2,9.7-14.2S179.5,180.1,136.7,140z"/>
	<path fill="#3C2415" d="M166.2,182.8c-0.1-26.7-66.1-58.8-57.1-56.7c9.1,2.1,11.8-2.8,11.7-3.2C121.9,139,172,159.8,166.2,182.8z"
		/>
	<path fill="#3C2415" d="M171.3,200.4c-3.1,0-6.3-0.4-9.8-1.5c-9.1-2.6-17.1-18.1-24.1-31.7c-5-9.7-16.3-18.2-19.6-16.9l0-4.7
		c6.2-2.4,15.5,6.3,22.6,20.1c6.7,13,14.3,27.7,22,29.9c20.1,6,40.4-12.5,40.5-12.7l-3.2,4.2C199.7,187.3,188.3,200.4,171.3,200.4z"
		/>
	<g>
		<path fill="#8DC63F" d="M26.3,250.1c0.8,0,1.2,0.2,1.2,0.5L28,253l0,0.2h-0.1l0.1,1.6l0,0.2c0,3-0.2,4.8-0.6,5.3
			c-0.8-0.1-1.8-0.1-3.1-0.1c-1.8,0-3,0.2-3.7,0.5c-0.9,0.2-1.9,0.7-2.9,1.3c-1.7,1.4-2.8,2.5-3.3,3.5c-0.1,0-0.2,0.3-0.5,0.9
			c-0.1,0-0.2,0.2-0.2,0.7c-0.3,0-0.5,1-0.8,3l0,1.7c0.3,1.5,0.5,2.4,0.8,2.7c0.8,1.7,2,3,3.6,3.8c0.7,0.4,1.6,0.7,2.8,0.9
			c0,0.1,0.3,0.2,1,0.2l1.4,0c2-0.3,3.4-0.6,3.9-0.8l1.7-0.8c0.9-0.5,1.5-0.9,1.7-1.2h0.2c0.3,0,0.5,0.9,0.8,2.7
			c0.5,2.4,0.7,4.6,0.9,6.7c-0.7,0.5-1.4,0.8-2.1,1.1c-0.1,0.2-0.5,0.3-1.1,0.5c0,0.1-0.4,0.2-1.1,0.3c0,0.2-0.6,0.3-1.8,0.5
			c-0.1,0.1-1,0.3-2.5,0.4c0,0.1-0.5,0.2-1.5,0.3l0-0.1l-0.1,0.1l-1.4,0c-1.5,0-2.9-0.1-4.1-0.4c-0.4,0-1-0.1-1.6-0.4
			c-0.9-0.2-2-0.6-3.4-1.4l-1.6-1.1c0-0.1-0.5-0.5-1.3-1.2c-1.8-2.1-2.6-3.4-2.6-3.9c-0.5-0.5-1-1.9-1.6-4.1l-0.4-3.1
			c0-1,0.2-2.7,0.5-5.2c0.1,0,0.2-0.5,0.4-1.5c0.1,0,0.2-0.4,0.4-1.2c0.4-0.9,0.7-1.5,0.7-1.9c0.1,0,0.3-0.3,0.6-1
			c0.9-1.7,2.1-3.4,3.5-4.9c2.2-2.2,3.5-3.3,4.1-3.5c0-0.2,0.4-0.5,1.2-0.8c0-0.1,0.2-0.3,0.7-0.4c1.4-0.8,2.7-1.4,3.7-1.7
			c0-0.2,0.3-0.2,0.9-0.2c0.2-0.2,1.3-0.5,3.2-0.8L26.3,250.1z"/>
		<path fill="#8DC63F" d="M55.5,250L55.5,250c0.6,0,0.9,0.8,0.9,2.5c0.2,0.2,0.3,0.9,0.5,2.3c0.1,0,0.2,0.5,0.3,1.6
			c0.3,0.5,0.4,1.1,0.4,1.8c0.1,0,0.3,0.6,0.5,1.8c0.1,0,0.2,0.5,0.4,1.6c0.1,0,0.3,0.5,0.3,1.5c0.2,0.4,0.5,1.4,0.9,3.2
			c0.2,0,0.3,0.5,0.3,1.4c0.3,0.3,0.4,0.8,0.4,1.4c0.2,0,0.3,0.5,0.4,1.4c0.1,0.1,0.3,0.6,0.5,1.5c0.1,0.1,0.3,0.6,0.5,1.6l1.9,5.8
			c0.2,0.3,0.4,0.6,0.4,1.1c0.1,0,0.3,0.4,0.5,1.3c0.1,0,0.4,0.6,0.8,1.8c0.1,0,0.2,0.2,0.3,0.7l0.3,0.3v0.1
			c-0.5,0.5-0.9,0.7-1.3,0.7c0,0.2-0.3,0.3-0.8,0.5c0,0.1-0.6,0.4-1.6,1l-1.7,1c-1.1,0.7-1.7,1-1.7,1.1l-0.6,0.2h-0.3
			c-0.1,0-0.2-0.3-0.3-0.9c-0.1-0.1-0.5-1-1.2-2.7l-0.8-2.1l-0.2-0.7c-0.1,0-0.3-0.5-0.5-1.4c-0.1,0-0.2-0.5-0.4-1.4l-0.1-0.1h-0.1
			c-1.7,0.1-3.5,0.3-5.4,0.6L47,281c-0.4,0-1.1,0.1-2.2,0.4c-0.3,0-0.5,0.6-0.7,1.8c-0.4,1.5-0.7,2.7-0.8,3.7c-0.1,0-0.2,0.3-0.3,1
			l-0.1,0.1l-9.3,0.1l-0.2-0.2c0-0.2,0.5-1.5,1.4-3.9c0.6-1.9,1-2.9,1.1-3l1.4-4.4c1.7-4.9,3.2-9.4,4.5-13.6l0.9-2.7
			c0-0.3,0.2-0.8,0.5-1.6l0.4-1.4L44,255c0.1,0,0.2-0.4,0.3-1.2c0.1,0,0.2-0.2,0.2-0.7l0.1-0.6l0.3-0.2l0.5,0l3.5-0.6
			c0-0.1,0.8-0.2,2.3-0.4c0.2-0.1,0.8-0.3,1.9-0.4c0-0.1,0.5-0.3,1.5-0.3C54.7,250.2,54.9,250.1,55.5,250z M46.6,273.3l0.2,0.2
			c1.2-0.3,2.4-0.5,3.5-0.6c0.1-0.1,0.8-0.3,2.1-0.4l0.2-0.4l-0.5-2.5c-0.3-0.9-0.5-1.8-0.6-2.7c-0.1,0-0.2-0.7-0.4-2
			c-0.1,0-0.3-0.7-0.4-2.1c-0.2,0-0.2-0.3-0.3-0.9l0-0.7l-0.1-0.4h-0.1c-0.2,0-0.4,0.5-0.6,1.6c-0.1,0-0.3,0.6-0.5,1.6
			c-0.1,0-0.2,0.5-0.4,1.4c-0.1,0-0.2,0.5-0.4,1.5c-0.1,0-0.3,0.5-0.4,1.4c-0.1,0-0.3,0.5-0.3,1.4c-0.2,0-0.3,0.5-0.5,1.6
			c-0.1,0-0.3,0.5-0.4,1.4C46.7,272.9,46.6,273.1,46.6,273.3z"/>
		<path fill="#8DC63F" d="M90.4,249.7c0.8,0,1.2,0.2,1.2,0.5l0.4,2.4l0,0.2H92l0.1,1.6l0,0.2c0,3-0.2,4.8-0.6,5.3
			c-0.8-0.1-1.8-0.2-3.1-0.1c-1.8,0-3,0.2-3.7,0.5c-0.9,0.2-1.9,0.7-2.9,1.3c-1.7,1.4-2.8,2.6-3.3,3.5c-0.1,0-0.2,0.3-0.5,0.9
			c-0.1,0-0.2,0.2-0.2,0.7c-0.3,0-0.5,1-0.8,3l0,1.7c0.3,1.5,0.5,2.4,0.8,2.7c0.8,1.7,2,3,3.6,3.8c0.7,0.4,1.6,0.7,2.8,0.9
			c0,0.1,0.3,0.2,1,0.2l1.4,0c2-0.3,3.4-0.6,3.9-0.8l1.7-0.8c0.9-0.5,1.5-1,1.7-1.2l0.2,0c0.3,0,0.5,0.9,0.8,2.7
			c0.5,2.4,0.7,4.6,0.9,6.7c-0.7,0.5-1.4,0.8-2.1,1.1c-0.1,0.2-0.5,0.3-1.1,0.5c0,0.1-0.4,0.2-1.1,0.3c0,0.2-0.6,0.3-1.8,0.5
			c-0.1,0.1-1,0.3-2.5,0.4c0,0.1-0.5,0.2-1.5,0.3l0-0.1l-0.1,0.1l-1.4,0c-1.5,0-2.9-0.1-4.1-0.4c-0.4,0-1-0.1-1.6-0.4
			c-0.9-0.2-2-0.6-3.4-1.4l-1.6-1.1c0-0.1-0.5-0.5-1.3-1.2c-1.8-2.1-2.6-3.4-2.6-3.9c-0.5-0.5-1-1.9-1.6-4.1l-0.4-3.1
			c0-1,0.2-2.7,0.5-5.2c0.1,0,0.2-0.5,0.4-1.5c0.1,0,0.2-0.4,0.4-1.2c0.4-0.9,0.7-1.5,0.7-1.9c0.1,0,0.3-0.3,0.6-1
			c0.9-1.7,2.1-3.4,3.5-4.9c2.2-2.2,3.5-3.3,4.1-3.5c0-0.2,0.4-0.5,1.2-0.8c0-0.1,0.2-0.3,0.7-0.4c1.4-0.8,2.7-1.4,3.7-1.7
			c0-0.2,0.3-0.2,0.9-0.3c0.2-0.2,1.3-0.5,3.2-0.8L90.4,249.7z"/>
		<path fill="#8DC63F" d="M128.5,248.8c0.3,0,0.5,0.1,0.7,0.4l-0.3,7.5c-1,0.4-2.3,0.7-4,0.7c-0.5,0.2-1.6,0.4-3.2,0.4
			c-0.5,0.2-1.6,0.4-3.2,0.4l-0.1,0.1l0.1,0.4l0,1l0.1,2.1h-0.1l0.1,0.1v0.1c0,6.9,0.3,13,0.6,18.3c0,1.2,0.1,2.6,0.4,4l-0.1,0.1
			l0,0.1l0.2,1.4c-0.6,0.5-1.6,0.8-2.9,0.8c-0.5,0.2-1.5,0.4-2.9,0.5c0,0.2-1,0.3-2.9,0.3c-0.7,0.2-1.4,0.3-1.9,0.3l-0.3,0l-0.2-0.2
			c0.3-2.3,0.4-5.1,0.5-8.5c0.2-1,0.3-6,0.6-14.9l0-4.8l-0.2-0.2l-5.6,0.5c0,0.1-1.3,0.2-3.8,0.3l-0.3,0.2c-0.2-0.1-0.4-0.2-0.4-0.3
			l0-1.2c0.3-2.3,0.4-3.8,0.4-4.7l0-2.9c0-0.4,0.4-0.6,1.1-0.6l0.5-0.1l0.1,0.1h0.1c0.5-0.1,2.3-0.2,5.6-0.3
			c0.5-0.2,3.3-0.3,8.4-0.5c1.3-0.1,3.8-0.3,7.5-0.5c0-0.1,0.3-0.1,1-0.2l0.1,0.1h0.1c0.5-0.1,1.3-0.2,2.2-0.2l1.9,0L128.5,248.8z"
			/>
		<path fill="#8DC63F" d="M145.6,249.5l0.3,0l0.2,0.2v0.2l-0.5,1.2c-0.2,0.3-0.4,0.9-0.7,1.8c-0.5,1-1.1,2.8-1.8,5.5
			c-0.1,0-0.2,0.4-0.2,1.2c-0.2,0-0.3,0.5-0.5,1.5c-0.7,2.6-1.1,4.4-1.2,5.3c-0.1,0.3-0.3,0.9-0.4,2l-0.5,4.6v0.2
			c0,1.5,0.3,2.8,1,4.1c0.5,0.5,0.9,1,1.4,1.3c0.9,0.4,1.7,0.6,2.3,0.6l3.2-0.6c0-0.2,0.4-0.3,1.1-0.3c0-0.1,0.9-0.6,2.6-1.4
			c0.5-0.4,0.8-0.7,0.8-0.8v-0.2h-0.1l0.1-0.8l0-3.4c0.2-4.3,0.5-7.5,0.8-9.8l0.4-3.2c0-0.5,0.1-1.3,0.4-2.6c0-0.5,0.1-1.3,0.4-2.4
			c0.1-1.4,0.4-2.1,0.8-2.1l3.8-0.9c0.3-0.2,1.1-0.4,2.1-0.5c0-0.1,0.6-0.2,1.9-0.4c0.1-0.1,0.5-0.2,1.1-0.3h0.1l0.2,0.2
			c0,0.5-0.2,1.4-0.5,2.7l-0.4,2.4l-0.4,2.6c-0.3,2.2-0.5,3.7-0.5,4.3c-0.2,0.3-0.3,1.5-0.4,3.7c-0.2,0.5-0.4,3.4-0.7,8.6l0,5.3
			c0.3,3.5,0.6,5.2,0.9,5.2l0.1,0.4c0,0.4-0.6,0.7-1.7,0.9c0,0.1-0.4,0.2-1.1,0.4c-0.1,0.1-0.5,0.3-1.2,0.4c0,0.1-0.4,0.3-1.1,0.3
			c-0.1,0.1-0.6,0.3-1.5,0.6c0,0.1-0.3,0.2-1,0.3c0,0.1-0.4,0.3-1.1,0.5l-0.1,0.1h-0.2l-0.2-0.2l0-0.5l-0.4-2.6l0.1-0.3l-0.1-0.2
			h-0.2c-1.3,1.4-3.8,2.5-7.5,3.3l-2.5,0.3l-1.7,0c-1.4-0.2-2.5-0.4-3.4-0.7c-1.1-0.5-2.1-1.2-3-1.9c-1.2-1.2-2-2.4-2.5-3.3
			c-0.7-1.5-1.1-2.6-1.1-3.3c-0.2,0-0.3-1-0.4-3.1l0.1-1.7l0-1.6l0.8-5.4c0.3-1.3,0.5-2.2,0.5-2.6c0.3-0.3,0.4-0.9,0.4-1.8
			c0.2,0,0.3-0.6,0.5-1.8c0.1,0,0.3-0.5,0.4-1.5c0.1,0,0.2-0.4,0.3-1.3c0.1,0,0.3-0.6,0.5-1.6c0.1,0,0.2-0.4,0.4-1.3
			c0.1,0,0.3-0.6,0.6-1.8c0.2-1,0.5-1.5,0.7-1.7c0.3,0,0.8-0.1,1.5-0.4c0.3,0,0.9-0.1,1.7-0.4l1.8-0.4c0.4,0,1-0.1,1.9-0.4
			L145.6,249.5z"/>
		<path fill="#8DC63F" d="M183,249l6.7,0l3.9,0.5c0,0.1,0.5,0.2,1.6,0.4c0,0.1,0.4,0.2,1.2,0.3c0,0.2,0.4,0.3,1.1,0.4l0.1,0.1l0,0.2
			c-0.5,0.9-0.8,1.6-0.9,2.1l-1,2.2c-0.1,0-0.1,0.2-0.2,0.7c-0.1,0.1-0.5,1-1.2,2.7l-0.3,0.7c0,0.5-0.2,0.7-0.7,0.7
			c-0.9-0.5-2.7-1-5.5-1.5l-4.8-0.4l-4.8,0.5c0,0.2-0.4,0.3-1.3,0.4c-0.1,0.2-0.4,0.3-0.9,0.4c-0.7,0.6-1.1,1.1-1.1,1.5l0,0.2
			c0,0.8,0.7,1.5,2.2,2.1c0.6,0.3,1.1,0.4,1.5,0.4c0.6,0.3,1.4,0.5,2.3,0.5c0.1,0.2,0.8,0.3,2.1,0.4c0.5,0.2,1.4,0.4,2.7,0.5
			c0,0.1,0.7,0.2,2,0.3c0,0.2,0.6,0.3,1.8,0.4c0,0.2,0.5,0.3,1.4,0.4c0,0.2,0.4,0.3,1.2,0.4c0,0.1,0.4,0.3,1.1,0.5l2.6,1.5
			c1.9,1.6,2.8,3.6,2.8,5.9c-0.1,1.7-0.3,3-0.7,3.9c-0.2,0.1-0.2,0.3-0.2,0.7c-0.1,0.1-0.5,0.6-1,1.5c-0.1,0-0.4,0.4-0.9,1.1
			c-1.6,1.5-2.9,2.4-3.9,2.8c0,0.2-0.2,0.3-0.7,0.3c-0.2,0.2-0.5,0.4-1.1,0.5c-0.8,0.5-2,0.8-3.7,1.2c-0.3,0.2-1.1,0.4-2.4,0.5
			c-0.1,0.1-1.6,0.3-4.7,0.6l-1.2,0c-4.1-0.2-6.2-0.5-6.2-0.7c-0.5,0-1.2-0.1-2-0.4l-1.3-0.4c-0.2,0-0.6-0.1-1.2-0.4
			c-0.2,0-0.5-0.1-1-0.4c-0.6-0.1-0.9-0.3-0.9-0.8c0.3-1.1,0.4-2.1,0.6-3.2l0.5-2.6c0.1,0,0.2-0.6,0.2-1.8l0.4-1.1l0.1-0.1h0.2
			c0.2,0.3,1,0.7,2.2,1.2c0.6,0.3,1.1,0.4,1.4,0.4c0.1,0.2,0.7,0.4,1.8,0.6c0,0.1,0.5,0.2,1.4,0.2c0,0.2,0.8,0.3,2.5,0.4l0.1,0.1
			l0.1,0l0.2-0.1l1.7,0.2l2.6-0.3l0.1,0.1l0.4-0.1l0.9,0c1.6-0.3,2.6-0.5,3.1-0.8l0.9-0.4c0.6-0.4,1-0.9,1.1-1.4l0-0.7
			c0-0.4-1.2-0.9-3.5-1.5c-0.4,0-1.1-0.1-2.1-0.4L180,273l-2.4-0.5c-2-0.5-3.6-1-4.8-1.5c-0.2,0-0.5-0.1-0.8-0.4
			c-0.3,0-1.4-0.6-3.1-1.9c-1.4-1.4-2.3-2.7-2.7-3.9l-0.6-2.4l0-1.3c0-0.9,0.2-2,0.6-3.1c0.3-0.9,0.9-2.1,2-3.5
			c1.2-1.1,2.3-1.9,3.1-2.3c0.5-0.4,1.5-0.9,2.9-1.3c0.9-0.4,1.7-0.6,2.4-0.8c0-0.1,0.6-0.2,1.9-0.4C178.4,249.6,180,249.3,183,249z
			"/>
		<path fill="#8DC63F" d="M218.4,241.6l0.2,0.3l-0.1,14.4l0.1,0.1l1.1,0c2.4-0.3,4.3-0.4,5.6-0.4c2.8-0.2,4.2-0.4,4.2-0.6l0-2.8
			l0.2-9.2l0-1.3c0-0.3,0.1-0.5,0.3-0.6l4.9,0.1c1.7,0.1,2.8,0.3,3.5,0.5l0.1,8.4l0,1.9c0.3,9,0.6,14.3,0.8,15.8l-0.1,0.1v0.1
			l0.6,8.8l0,0.7l0.1,0.5c0,0.3-0.7,0.5-2,0.7c-0.5,0-1.7,0.2-3.4,0.5l-2.9,0.6c-0.2,0.2-0.4,0.2-0.7,0.2c-0.4,0-0.7-0.4-0.7-1.1
			l0.1-0.1l-0.6-10.2l0-4.5l-0.2-0.5l-0.8,0.1l-3.4,0c-1.7,0-3.3,0.2-4.8,0.4l-0.2-0.1l-0.7,0.1h-0.6l-0.2,0.2l0.1,8.7l0.1,5.7
			l-0.3,0.2l-0.9-0.1l-0.1,0.1h-0.1c-1.7-0.3-4.1-0.4-7.2-0.4l-0.7,0l-0.2-0.2l0-1.4c0.3-2.1,0.4-4.2,0.5-6.3l-0.1-0.1
			c0.2-1.3,0.3-2.7,0.3-4l0-1.1l-0.1-0.4c-1.5,0.1-2.4,0.2-2.9,0.4H207c-0.2-0.1-0.2-0.2-0.2-0.5l0-0.7c0-2.1-0.2-4.1-0.5-5.8
			c0-0.5,0.9-0.7,2.6-0.8c0-0.1,0.3-0.2,1-0.2v-0.1l0.1-0.3l-0.4-13.8l-0.1-0.3c0-0.6,1-0.9,3-0.9
			C212.5,241.8,214.5,241.7,218.4,241.6z"/>
		<path fill="#8DC63F" d="M263.8,241.3L263.8,241.3c0.6,0,0.9,0.8,0.9,2.5c0.2,0.1,0.3,0.9,0.5,2.3c0.1,0,0.3,0.5,0.3,1.6
			c0.3,0.5,0.4,1.1,0.4,1.8c0.1,0,0.3,0.6,0.5,1.8c0.1,0,0.2,0.5,0.4,1.6c0.1,0,0.3,0.5,0.3,1.5c0.2,0.4,0.5,1.4,0.9,3.2
			c0.2,0,0.3,0.5,0.3,1.4c0.3,0.3,0.4,0.8,0.4,1.4c0.2,0,0.3,0.5,0.4,1.4c0.1,0.1,0.3,0.6,0.5,1.5c0.1,0.1,0.3,0.6,0.5,1.6l1.9,5.8
			c0.2,0.3,0.4,0.6,0.4,1.1c0.1,0,0.3,0.4,0.5,1.3c0.1,0,0.4,0.6,0.8,1.8c0.1,0,0.2,0.2,0.3,0.7l0.3,0.3v0.1
			c-0.5,0.5-0.9,0.7-1.3,0.7c0,0.2-0.3,0.3-0.8,0.5c0,0.1-0.6,0.4-1.6,1l-1.7,1c-1.1,0.7-1.7,1-1.7,1.1l-0.6,0.2l-0.3,0
			c-0.1,0-0.2-0.3-0.3-0.9c-0.1-0.1-0.5-1-1.2-2.7l-0.8-2.1l-0.2-0.7c-0.1,0-0.3-0.5-0.5-1.4c-0.1,0-0.2-0.5-0.4-1.4l-0.1-0.1h-0.1
			c-1.7,0.1-3.5,0.3-5.4,0.6l-2.4,0.4c-0.4,0-1.1,0.1-2.2,0.4c-0.3,0-0.5,0.6-0.7,1.8c-0.4,1.5-0.7,2.7-0.8,3.7
			c-0.1,0-0.2,0.3-0.3,1l-0.1,0.1l-9.3,0.1l-0.2-0.2c0-0.2,0.5-1.5,1.4-3.9c0.6-1.9,1-2.9,1.1-3l1.4-4.4c1.7-4.9,3.2-9.4,4.5-13.6
			l0.9-2.7c0-0.3,0.2-0.8,0.5-1.6l0.4-1.4l0.6-2.1c0.1,0,0.2-0.4,0.3-1.2c0.1,0,0.2-0.2,0.2-0.7l0.1-0.6l0.3-0.2l0.5,0l3.5-0.6
			c0-0.1,0.8-0.2,2.3-0.4c0.2-0.1,0.8-0.3,1.9-0.4c0-0.2,0.5-0.3,1.5-0.3C263,241.4,263.3,241.3,263.8,241.3z M255,264.5l0.2,0.2
			c1.2-0.3,2.4-0.5,3.5-0.6c0.1-0.1,0.8-0.3,2.1-0.4l0.2-0.4l-0.5-2.5c-0.3-0.9-0.5-1.8-0.6-2.7c-0.1,0-0.2-0.7-0.4-2
			c-0.1,0-0.3-0.7-0.4-2.1c-0.2,0-0.2-0.3-0.3-0.9l0-0.7l-0.1-0.4l-0.1,0c-0.2,0-0.4,0.5-0.6,1.6c-0.1,0-0.3,0.6-0.5,1.6
			c-0.1,0-0.2,0.5-0.4,1.4c-0.1,0-0.2,0.5-0.4,1.5c-0.1,0-0.3,0.5-0.4,1.4c-0.2,0-0.3,0.5-0.3,1.4c-0.2,0-0.3,0.6-0.5,1.6
			c-0.1,0-0.3,0.5-0.4,1.4C255.1,264.1,255,264.3,255,264.5z"/>
		<path fill="#8DC63F" d="M298.7,240.9c0.8,0,1.2,0.2,1.2,0.5l0.4,2.4l0,0.2h-0.1l0.1,1.6v0.2c0,3-0.2,4.8-0.6,5.3
			c-0.8-0.1-1.8-0.1-3.1-0.1c-1.8,0-3,0.2-3.7,0.5c-0.9,0.2-1.9,0.7-2.9,1.3c-1.7,1.4-2.8,2.5-3.3,3.5c-0.1,0-0.2,0.3-0.5,0.9
			c-0.1,0-0.2,0.2-0.2,0.7c-0.3,0-0.5,1-0.8,3l0,1.7c0.3,1.5,0.5,2.4,0.8,2.7c0.8,1.7,2,3,3.6,3.8c0.7,0.4,1.6,0.7,2.8,0.9
			c0,0.1,0.3,0.2,1,0.2l1.4,0c2-0.3,3.4-0.6,3.9-0.8l1.7-0.8c0.9-0.5,1.5-1,1.7-1.2h0.2c0.3,0,0.5,0.9,0.8,2.7
			c0.5,2.4,0.7,4.6,0.9,6.7c-0.7,0.5-1.4,0.8-2.1,1.1c-0.1,0.2-0.5,0.3-1.1,0.5c0,0.1-0.4,0.2-1.1,0.3c0,0.2-0.6,0.3-1.8,0.5
			c-0.1,0.1-1,0.3-2.5,0.4c0,0.1-0.5,0.2-1.5,0.3l0-0.1l-0.1,0.1l-1.4,0c-1.5,0-2.9-0.1-4.1-0.4c-0.4,0-1-0.1-1.6-0.4
			c-0.9-0.2-2-0.6-3.4-1.4l-1.6-1.1c0-0.1-0.5-0.5-1.3-1.2c-1.8-2.1-2.6-3.4-2.6-3.9c-0.5-0.5-1-1.9-1.6-4.1l-0.4-3.1
			c0-1,0.2-2.7,0.5-5.2c0.1,0,0.2-0.5,0.4-1.5c0.1,0,0.2-0.4,0.4-1.2c0.4-0.9,0.7-1.5,0.7-1.9c0.1,0,0.3-0.3,0.6-1
			c0.9-1.7,2.1-3.4,3.5-4.9c2.2-2.2,3.5-3.3,4.1-3.5c0-0.2,0.4-0.5,1.2-0.8c0-0.1,0.2-0.3,0.7-0.4c1.4-0.8,2.7-1.4,3.7-1.7
			c0-0.2,0.3-0.2,0.9-0.3c0.2-0.2,1.3-0.5,3.2-0.8L298.7,240.9z"/>
		<path fill="#8DC63F" d="M315.2,240.9l0.4,0l0.3,0.3l0,1l0.4,2.5l0,1c0.3,2.8,0.4,5.7,0.5,8.7l0,0.4l0.2,0.2c1-0.8,2.9-2.9,5.9-6.3
			c1.5-1.8,3.1-3.7,4.6-5.8l1.4-2l0.2-0.2h0.2l2.5,1.7c0.2,0,1.3,0.8,3.3,2.5l0.4,0.5v0.1l-2.1,3.5c-0.1,0-0.5,0.6-1.2,1.7
			c-0.1,0-0.4,0.4-0.9,1.2l-1.8,2.3l-3.3,3.7v0.1c0.3,0.4,0.6,1.1,0.9,2.2c0.1,0,0.5,0.9,1.3,2.5c1.6,2.9,3.1,5.4,4.5,7.5
			c0.1,0,0.4,0.4,0.8,1.2l1.5,1.9v0.1l-2.2,1.7c-2.1,1.7-3.8,3.1-4.9,4.2l-0.1,0c-0.9-0.8-1.8-1.9-2.6-3.4c-1.5-2.2-3.2-5.3-5.1-9.2
			l-1.4-3.4l-0.3-0.1c-0.7,0.8-1.3,1.2-1.6,1.2l-0.1,4.3l0,0.7l-0.1,1.3l0.1,0.2c-0.3,1.7-0.4,3.2-0.4,4.3l0,0.9
			c-0.3,2.1-0.4,3.2-0.6,3.3h-0.1c-0.4-0.2-1.6-0.5-3.4-0.8c-1.1-0.3-2.3-0.4-3.6-0.5c-0.7-0.2-1.1-0.3-1.1-0.4l0-0.6l0.4-6.2l0-4.7
			l-0.1-0.1l0.1-0.2l0-5.3c-0.2-9.9-0.4-14.8-0.6-14.8l-0.1-2.2l0-0.6c0-0.3,0.7-0.5,2.2-0.7c0.1-0.2,0.7-0.3,2-0.5
			c0.1-0.1,0.6-0.2,1.4-0.3c0-0.2,0.4-0.3,1.3-0.4C314.7,241,314.9,240.9,315.2,240.9z"/>
	</g>
	<path d="M195.2,107.1c0.3-2.5-2.7,23.5,3.3,24.4c5.7,0.9,3.5-0.9,17.2-2.1c12.8-1.1,8-23.9,8-23.9l-0.4-4.9L195.2,107.1z"/>
	<path fill="#FFFFFF" d="M199.1,109.5c0.2-1.8-2,17.3,2.4,18c4.2,0.7,1.8,0.2,12.7-1.6c9.4-1.5,5.9-17.6,5.9-17.6l-0.3-3.6
		L199.1,109.5z"/>
	<path d="M187.8,109.1c0,0,5.3,21.6,0.2,24.1c-5.1,2.5-6.8,2.7-20.6,2.7c-18.7,0.1-14.6-20.2-14.6-20.2l0.7-5.3L187.8,109.1z"/>
	<path fill="#FFFFFF" d="M184.8,114.1c0,0,3.7,15,0.1,16.7c-3.6,1.7-4.8,0.9-14.3,1.9c-12.8,1.3-10.2-14-10.2-14l0.5-3.7
		L184.8,114.1z"/>
	<path d="M117.2,105c5,0.3,36.2,5.4,36.2,5.4l34.4-1.3l3.9,1.4l3.5-3.4l28-6.5l0.4,4.9l-28.5,7l-2.6,2.7l-4-2.7l-35.8,3.3
		c0,0-27.5-5.9-23.6-5c-8.4-2.2-13.8,1.8-13.8,1.8S111.5,104.7,117.2,105z"/>
	<circle cx="181.1" cy="119" r="1.7"/>
	<circle cx="203" cy="116.2" r="1.7"/>
</g>
</svg>
